<svg width="22" height="22" viewBox="0 0 22 22" fill="none" xmlns="http://www.w3.org/2000/svg">
<path d="M9 17C9 15.8954 9.89543 15 11 15C13.2091 15 15 13.2091 15 11C15 8.79086 13.2091 7 11 7C12.1046 7 13 6.10457 13 5C13 3.89543 12.1046 3 11 3C15.4183 3 19 6.58172 19 11C19 15.4183 15.4183 19 11 19V18.5V18C14.866 18 18 14.866 18 11C18 8.20002 16.3558 5.78454 13.9805 4.66504C13.9871 4.72479 13.993 4.78495 13.9961 4.8457L14 5C14 5.61714 13.8127 6.1901 13.4932 6.66699C14.991 7.53066 16 9.14684 16 11C16 13.7614 13.7614 16 11 16C10.4477 16 10 16.4477 10 17C10 17.5523 10.4477 18 11 18V18.5V19C9.89543 19 9 18.1046 9 17Z" fill="black"/>
<path d="M13 5C13 6.03565 12.2128 6.887 11.2041 6.98926L11 7L10.7939 7.00488C8.74653 7.10877 7.10535 8.75244 7.00488 10.8008L7 11C7 13.2091 8.79086 15 11 15C9.96435 15 9.113 15.7872 9.01074 16.7959L9 17C9 18.1046 9.89543 19 11 19C6.58172 19 3 15.4183 3 11L3.01074 10.5879C3.22523 6.36114 6.71994 3 11 3V4C7.13401 4 4 7.13401 4 11C4 13.8 5.64419 16.2155 8.01953 17.335C8.00731 17.225 8 17.1133 8 17C8 16.3829 8.18734 15.8099 8.50684 15.333C7.00905 14.4693 6 12.8532 6 11C6 8.3248 8.10053 6.13999 10.7432 6.00586H10.7568L10.7705 6.00488L10.9766 6H11C11.5523 6 12 5.55228 12 5C12 4.44772 11.5523 4 11 4V3L11.2041 3.01074C12.1457 3.1062 12.8938 3.85435 12.9893 4.7959L13 5Z" fill="black"/>
</svg>
