<svg width="1024" height="1024" viewBox="0 0 1024 1024" fill="none" xmlns="http://www.w3.org/2000/svg">
<path d="M511.8 1024C441.218 1024 384 966.692 384 896C384 825.308 441.218 768 511.8 768C652.964 768 767.4 653.385 767.4 512C767.4 370.615 652.964 256 511.8 256C582.382 256 639.6 198.692 639.6 128C639.6 57.3076 582.382 0 511.8 0C794.128 0 1023 229.23 1023 512C1023 794.77 794.128 1024 511.8 1024Z" fill="#67A5E0"/>
<path d="M512.2 0C582.782 0 640 57.3076 640 128C640 198.692 582.782 256 512.2 256C371.036 256 256.6 370.615 256.6 512C256.6 653.385 371.036 768 512.2 768C441.618 768 384.4 825.308 384.4 896C384.4 966.692 441.618 1024 512.2 1024C229.872 1024 1 794.77 1 512C1 229.23 229.872 0 512.2 0Z" fill="#FFAB63"/>
<path d="M512 128C439.132 128 367.767 148.733 306.243 187.778C244.718 226.823 195.572 282.567 164.546 348.501" stroke="white" stroke-width="50"/>
<path d="M512 896C584.868 896 656.233 875.267 717.757 836.222C779.282 797.177 828.428 741.433 859.454 675.499" stroke="white" stroke-width="50"/>
<path d="M602 128L512 192.952L512 63.0481L602 128Z" fill="white"/>
<path d="M422 896L512 831.048L512 960.952L422 896Z" fill="white"/>
<path d="M143.298 449.271L94.4453 591H64.9092L126.452 427.484H145.319L143.298 449.271ZM184.177 591L135.212 449.271L133.078 427.484H152.058L213.825 591H184.177ZM181.818 530.355V552.704H92.873V530.355H181.818Z" fill="white"/>
<path d="M817.804 515.32C823.99 513.827 831.404 511.853 840.044 509.4C848.79 506.84 857.644 504.227 866.604 501.56L868.684 515.32C860.577 517.88 852.364 520.44 844.044 523C835.724 525.56 828.15 527.853 821.324 529.88L817.804 515.32ZM819.724 463.32H866.444V477.4H819.724V463.32ZM837.324 432.12H852.204V562.36C852.204 566.2 851.777 569.24 850.924 571.48C850.07 573.72 848.577 575.427 846.444 576.6C844.31 577.88 841.59 578.733 838.284 579.16C834.977 579.587 830.924 579.747 826.124 579.64C825.804 577.613 825.217 575.16 824.364 572.28C823.617 569.507 822.764 567.053 821.804 564.92C824.684 565.027 827.35 565.08 829.804 565.08C832.257 565.08 833.964 565.08 834.924 565.08C836.524 565.08 837.324 564.173 837.324 562.36V432.12ZM894.604 445.88H940.844V458.68H894.604V445.88ZM897.964 431.96L913.164 434.68C909.217 443.213 904.257 451.8 898.284 460.44C892.31 469.08 885.004 477.133 876.364 484.6C875.617 483.427 874.657 482.147 873.484 480.76C872.31 479.373 871.084 478.04 869.804 476.76C868.63 475.48 867.51 474.467 866.444 473.72C871.564 469.667 876.15 465.24 880.204 460.44C884.257 455.64 887.777 450.787 890.764 445.88C893.75 440.973 896.15 436.333 897.964 431.96ZM936.204 445.88H939.564L941.964 445.08L952.044 451.8C949.91 455.427 947.404 459.213 944.524 463.16C941.644 467 938.604 470.733 935.404 474.36C932.204 477.88 929.164 481.08 926.284 483.96C925.004 482.787 923.297 481.56 921.164 480.28C919.137 478.893 917.324 477.773 915.724 476.92C918.284 474.36 920.897 471.427 923.564 468.12C926.23 464.707 928.684 461.293 930.924 457.88C933.164 454.467 934.924 451.427 936.204 448.76V445.88ZM866.444 519.96H965.804V533.08H866.444V519.96ZM877.324 472.6H955.564V523.96H940.364V484.28H891.884V523.96H877.324V472.6ZM922.444 528.44C925.324 534.307 929.057 539.853 933.644 545.08C938.337 550.2 943.67 554.733 949.644 558.68C955.724 562.52 962.177 565.56 969.004 567.8C967.404 569.293 965.644 571.213 963.724 573.56C961.91 575.907 960.524 577.987 959.564 579.8C952.31 576.92 945.537 573.133 939.244 568.44C933.057 563.747 927.51 558.36 922.604 552.28C917.697 546.093 913.59 539.373 910.284 532.12L922.444 528.44ZM909.484 481.24H924.364V501.88C924.364 506.467 923.99 511.373 923.244 516.6C922.604 521.827 921.217 527.213 919.084 532.76C916.95 538.307 913.804 543.853 909.644 549.4C905.484 554.947 899.99 560.387 893.164 565.72C886.444 570.947 878.017 575.96 867.884 580.76C866.817 579.16 865.27 577.293 863.244 575.16C861.324 573.133 859.457 571.427 857.644 570.04C867.457 565.88 875.564 561.507 881.964 556.92C888.364 552.227 893.43 547.48 897.164 542.68C900.897 537.773 903.617 532.92 905.324 528.12C907.137 523.32 908.257 518.68 908.684 514.2C909.217 509.72 909.484 505.56 909.484 501.72V481.24Z" fill="white"/>
</svg>
